<?xml version="1.0" standalone="no"?>
<!DOCTYPE svg PUBLIC "-//W3C//DTD SVG 20010904//EN"
 "http://www.w3.org/TR/2001/REC-SVG-20010904/DTD/svg10.dtd">
<svg version="1.0" xmlns="http://www.w3.org/2000/svg"
 width="300.000000pt" height="81.000000pt" viewBox="0 0 300.000000 81.000000"
 preserveAspectRatio="xMidYMid meet">

<g transform="translate(0.000000,81.000000) scale(0.100000,-0.100000)"
fill="#000000" stroke="none">
<path d="M442 688 c-29 -18 -34 -18 -81 -4 -49 14 -52 14 -75 -7 -13 -12 -36
-58 -52 -105 -15 -46 -33 -90 -39 -98 -5 -8 -36 -18 -67 -24 -68 -11 -103 -32
-117 -70 -52 -149 320 -369 629 -372 190 -2 290 57 290 172 0 62 -31 106 -105
152 -39 24 -42 30 -64 119 -41 167 -34 155 -118 195 -41 20 -96 42 -123 49
-43 11 -51 11 -78 -7z"/>
</g>
</svg>
